# xmcd
# 
# Track frame offsets:
#     150
#     23184
#     47839
#     54982
# 
# Disc length: 1034
# 
# Revision: 0
# Processed by: cddbd v1.5.2PL0 Copyright (c) Steve Scherf et al.
# Submitted via: fre:ac v1.0.17
# 
DISCID=2b040804
DTITLE=serial TV drama - 桃源郷エイリアン
DYEAR=0
DGENRE=
TTITLE0=桃源郷エイリアン
TTITLE1=LEMON
TTITLE2=ed
TTITLE3=d
EXTD=
EXTT0=
EXTT1=
EXTT2=
EXTT3=
PLAYORDER=
